<svg xmlns="http://www.w3.org/2000/svg" width="900" height="262" viewBox="0 0 900 262" role="img" aria-label="A 2 by 2 box over a 1-bit image: each block counts 0 to 4, rescaled to a 3-bit value stored as three planes">
<style>
.bg{fill:#ffffff}
.fg{fill:#1f2328}
.muted{fill:#59636e}
.on{fill:#2f6fdb}
.off{fill:#eef1f5}
.hi{fill:#d4620f}
.hisoft{fill:#fbe3cf}
.neg{fill:#d4620f}
.pad{fill:#d7dbe0}
.cell{stroke:#aeb6bf;stroke-width:0.75}
.word{fill:none;stroke:#1f2328;stroke-width:2}
.box{fill:none;stroke:#59636e;stroke-width:1;stroke-dasharray:3 3}
.ring{fill:none;stroke:#d4620f;stroke-width:2.5}
.edge{stroke:#59636e;stroke-width:1.25;fill:none}
.arrowhead{fill:#59636e}
.hiedge{stroke:#d4620f;stroke-width:2;fill:none}
.hiarrowhead{fill:#d4620f}
.bar1{fill:#aeb6bf}
.bar2{fill:#2f6fdb}
.s1{stroke:#2f6fdb;stroke-width:2.5;fill:none}
.s2{stroke:#d4620f;stroke-width:2.5;fill:none}
.d1{fill:#2f6fdb}
.d2{fill:#d4620f}
.gridline{stroke:#d7dbe0;stroke-width:1}
.refline{stroke:#1f2328;stroke-width:1.5;stroke-dasharray:5 4}
.axis{stroke:#59636e;stroke-width:1}
.halo{paint-order:stroke;stroke:#ffffff;stroke-width:4px;stroke-linejoin:round}
text{font-family:-apple-system,BlinkMacSystemFont,"Segoe UI",Helvetica,Arial,sans-serif}
.mono{font-family:ui-monospace,SFMono-Regular,Menlo,Consolas,monospace}
.oninv{fill:#ffffff}
@media (prefers-color-scheme: dark){
.bg{fill:#0d1117}
.fg{fill:#e6edf3}
.muted{fill:#9198a1}
.on{fill:#4493f8}
.off{fill:#1c2129}
.hi{fill:#f0883e}
.hisoft{fill:#4a2a12}
.neg{fill:#f0883e}
.pad{fill:#3d444d}
.cell{stroke:#3d444d}
.word{stroke:#e6edf3}
.box{stroke:#9198a1}
.ring{stroke:#f0883e}
.edge{stroke:#9198a1}
.arrowhead{fill:#9198a1}
.hiedge{stroke:#f0883e}
.hiarrowhead{fill:#f0883e}
.bar1{fill:#59636e}
.bar2{fill:#4493f8}
.s1{stroke:#4493f8}
.s2{stroke:#f0883e}
.d1{fill:#4493f8}
.d2{fill:#f0883e}
.gridline{stroke:#30363d}
.refline{stroke:#e6edf3}
.axis{stroke:#9198a1}
.halo{stroke:#0d1117}
.oninv{fill:#0d1117}
}
</style>
<rect width="100%%" height="100%%" class="bg" rx="8"/>
<text x="30" y="26" font-size="14" text-anchor="start" class="fg" font-weight="600">1-bit source</text>
<rect x="30" y="50" width="26" height="26" class="on cell"/>
<rect x="56" y="50" width="26" height="26" class="on cell"/>
<rect x="82" y="50" width="26" height="26" class="on cell"/>
<rect x="108" y="50" width="26" height="26" class="off cell"/>
<rect x="134" y="50" width="26" height="26" class="off cell"/>
<rect x="160" y="50" width="26" height="26" class="off cell"/>
<rect x="186" y="50" width="26" height="26" class="off cell"/>
<rect x="212" y="50" width="26" height="26" class="on cell"/>
<rect x="30" y="76" width="26" height="26" class="on cell"/>
<rect x="56" y="76" width="26" height="26" class="on cell"/>
<rect x="82" y="76" width="26" height="26" class="off cell"/>
<rect x="108" y="76" width="26" height="26" class="off cell"/>
<rect x="134" y="76" width="26" height="26" class="off cell"/>
<rect x="160" y="76" width="26" height="26" class="off cell"/>
<rect x="186" y="76" width="26" height="26" class="on cell"/>
<rect x="212" y="76" width="26" height="26" class="on cell"/>
<rect x="30" y="102" width="26" height="26" class="off cell"/>
<rect x="56" y="102" width="26" height="26" class="on cell"/>
<rect x="82" y="102" width="26" height="26" class="on cell"/>
<rect x="108" y="102" width="26" height="26" class="off cell"/>
<rect x="134" y="102" width="26" height="26" class="on cell"/>
<rect x="160" y="102" width="26" height="26" class="on cell"/>
<rect x="186" y="102" width="26" height="26" class="on cell"/>
<rect x="212" y="102" width="26" height="26" class="on cell"/>
<rect x="30" y="128" width="26" height="26" class="off cell"/>
<rect x="56" y="128" width="26" height="26" class="off cell"/>
<rect x="82" y="128" width="26" height="26" class="on cell"/>
<rect x="108" y="128" width="26" height="26" class="on cell"/>
<rect x="134" y="128" width="26" height="26" class="on cell"/>
<rect x="160" y="128" width="26" height="26" class="on cell"/>
<rect x="186" y="128" width="26" height="26" class="on cell"/>
<rect x="212" y="128" width="26" height="26" class="on cell"/>
<rect x="30" y="50" width="52" height="52" class="word"/>
<rect x="82" y="50" width="52" height="52" class="word"/>
<rect x="134" y="50" width="52" height="52" class="word"/>
<rect x="186" y="50" width="52" height="52" class="word"/>
<rect x="30" y="102" width="52" height="52" class="word"/>
<rect x="82" y="102" width="52" height="52" class="word"/>
<rect x="134" y="102" width="52" height="52" class="word"/>
<rect x="186" y="102" width="52" height="52" class="word"/>
<rect x="30" y="50" width="52" height="52" class="ring"/>
<line x1="250" y1="102" x2="289" y2="102" class="edge"/>
<path d="M296 102L289 106L289 98Z" class="arrowhead"/>
<text x="308" y="26" font-size="14" text-anchor="start" class="fg" font-weight="600">count, 0–4</text>
<rect x="308" y="50" width="32" height="32" class="hisoft cell"/>
<text x="324" y="71" font-size="14" text-anchor="middle" class="fg mono">4</text>
<rect x="340" y="50" width="32" height="32" class="off cell"/>
<text x="356" y="71" font-size="14" text-anchor="middle" class="fg mono">1</text>
<rect x="372" y="50" width="32" height="32" class="off cell"/>
<text x="388" y="71" font-size="14" text-anchor="middle" class="fg mono">0</text>
<rect x="404" y="50" width="32" height="32" class="off cell"/>
<text x="420" y="71" font-size="14" text-anchor="middle" class="fg mono">3</text>
<rect x="308" y="82" width="32" height="32" class="off cell"/>
<text x="324" y="103" font-size="14" text-anchor="middle" class="fg mono">1</text>
<rect x="340" y="82" width="32" height="32" class="off cell"/>
<text x="356" y="103" font-size="14" text-anchor="middle" class="fg mono">3</text>
<rect x="372" y="82" width="32" height="32" class="off cell"/>
<text x="388" y="103" font-size="14" text-anchor="middle" class="fg mono">4</text>
<rect x="404" y="82" width="32" height="32" class="off cell"/>
<text x="420" y="103" font-size="14" text-anchor="middle" class="fg mono">4</text>
<line x1="448" y1="82" x2="487" y2="82" class="edge"/>
<path d="M494 82L487 86L487 78Z" class="arrowhead"/>
<text x="506" y="26" font-size="14" text-anchor="start" class="fg" font-weight="600">3-bit value</text>
<rect x="506" y="50" width="32" height="32" class="hisoft cell"/>
<text x="522" y="71" font-size="14" text-anchor="middle" class="fg mono">7</text>
<rect x="538" y="50" width="32" height="32" class="off cell"/>
<text x="554" y="71" font-size="14" text-anchor="middle" class="fg mono">2</text>
<rect x="570" y="50" width="32" height="32" class="off cell"/>
<text x="586" y="71" font-size="14" text-anchor="middle" class="fg mono">0</text>
<rect x="602" y="50" width="32" height="32" class="off cell"/>
<text x="618" y="71" font-size="14" text-anchor="middle" class="fg mono">5</text>
<rect x="506" y="82" width="32" height="32" class="off cell"/>
<text x="522" y="103" font-size="14" text-anchor="middle" class="fg mono">2</text>
<rect x="538" y="82" width="32" height="32" class="off cell"/>
<text x="554" y="103" font-size="14" text-anchor="middle" class="fg mono">5</text>
<rect x="570" y="82" width="32" height="32" class="off cell"/>
<text x="586" y="103" font-size="14" text-anchor="middle" class="fg mono">7</text>
<rect x="602" y="82" width="32" height="32" class="off cell"/>
<text x="618" y="103" font-size="14" text-anchor="middle" class="fg mono">7</text>
<line x1="646" y1="82" x2="685" y2="82" class="edge"/>
<path d="M692 82L685 86L685 78Z" class="arrowhead"/>
<text x="704" y="26" font-size="14" text-anchor="start" class="fg" font-weight="600">stored as 3 planes</text>
<rect x="704" y="50" width="18" height="18" class="on cell"/>
<rect x="722" y="50" width="18" height="18" class="off cell"/>
<rect x="740" y="50" width="18" height="18" class="off cell"/>
<rect x="758" y="50" width="18" height="18" class="on cell"/>
<rect x="704" y="68" width="18" height="18" class="off cell"/>
<rect x="722" y="68" width="18" height="18" class="on cell"/>
<rect x="740" y="68" width="18" height="18" class="on cell"/>
<rect x="758" y="68" width="18" height="18" class="on cell"/>
<rect x="704" y="50" width="18" height="18" class="ring"/>
<text x="786" y="72" font-size="11" text-anchor="start" class="muted">plane 0</text>
<rect x="704" y="100" width="18" height="18" class="on cell"/>
<rect x="722" y="100" width="18" height="18" class="on cell"/>
<rect x="740" y="100" width="18" height="18" class="off cell"/>
<rect x="758" y="100" width="18" height="18" class="off cell"/>
<rect x="704" y="118" width="18" height="18" class="on cell"/>
<rect x="722" y="118" width="18" height="18" class="off cell"/>
<rect x="740" y="118" width="18" height="18" class="on cell"/>
<rect x="758" y="118" width="18" height="18" class="on cell"/>
<rect x="704" y="100" width="18" height="18" class="ring"/>
<text x="786" y="122" font-size="11" text-anchor="start" class="muted">plane 1</text>
<rect x="704" y="150" width="18" height="18" class="on cell"/>
<rect x="722" y="150" width="18" height="18" class="off cell"/>
<rect x="740" y="150" width="18" height="18" class="off cell"/>
<rect x="758" y="150" width="18" height="18" class="on cell"/>
<rect x="704" y="168" width="18" height="18" class="off cell"/>
<rect x="722" y="168" width="18" height="18" class="on cell"/>
<rect x="740" y="168" width="18" height="18" class="on cell"/>
<rect x="758" y="168" width="18" height="18" class="on cell"/>
<rect x="704" y="150" width="18" height="18" class="ring"/>
<text x="786" y="172" font-size="11" text-anchor="start" class="muted">plane 2</text>
<text x="30" y="194" font-size="12" text-anchor="start" class="fg">value = round(count × 7 / 4): the five counts 0, 1, 2, 3, 4 become 0, 2, 4, 5, 7, so white stays white at full scale.</text>
<text x="30" y="216" font-size="11" text-anchor="start" class="muted">The count is a bit-sliced sum of four 1-bit inputs, so it is word-parallel like the adder; the rescale is a comparison against constants.</text>
<text x="30" y="234" font-size="11" text-anchor="start" class="muted">Row pairs are read by index, so the vertical half of the downsample moves no bits; the horizontal half is a word-local unshuffle.</text>
</svg>
